<?xml version="1.0" encoding="utf-8"?>
<svg id="master-artboard" viewBox="0 0 779.0238037109375 734.4837036132812" version="1.1" xmlns="http://www.w3.org/2000/svg" x="0px" y="0px" width="779.0238037109375px" height="734.4837036132812px" enable-background="new 0 0 2340 1560"><rect id="ee-background" x="0" y="0" width="779.0238037109375" height="734.4837036132812" style="fill: white; fill-opacity: 0; pointer-events: none;"/><defs><style id="ee-google-fonts">@import url(https://fonts.googleapis.com/css?family=Amethysta:400);</style></defs>
<metadata><!--?xpacket begin="﻿" id="W5M0MpCehiHzreSzNTczkc9d"?-->

                                                                                                    
                                                                                                    
                                                                                                    
                                                                                                    
                                                                                                    
                                                                                                    
                                                                                                    
                                                                                                    
                                                                                                    
                                                                                                    
                                                                                                    
                                                                                                    
                                                                                                    
                                                                                                    
                                                                                                    
                                                                                                    
                                                                                                    
                                                                                                    
                                                                                                    
                                                                                                    
                           
<!--?xpacket end="w"?-->
	</metadata>


<path d="M1039.511,791.043c36.534,20.988,48.283-43.915,48.283-65.103c0-21.189-15.707-36.73-15.929-36.89&#10;&#9;&#9;c0.074,0.04,1.911,1.122,25.458-2.558c24.098-3.758,35.793-25.493,35.793-25.493s-3.78,4.585-15.131,6.574&#10;&#9;&#9;c-27.488,4.818-26.969-25.21-10.979-42.874c18.171-20.069,59.251-13.821,95.053-53.657c8.854-9.846,15.376-27.465,19.859-42.612&#10;&#9;&#9;l-26.748-15.445c-13.844-7.992-36.497-7.992-50.339,0l-108.979,62.921c-13.842,7.993-25.169,27.609-25.169,43.593v125.84&#10;&#9;&#9;c0,15.985,11.327,35.6,25.169,43.593L1039.511,791.043z" transform="matrix(1.094211459159851, 0, 0, 1.094211459159851, -877.2068176269531, -481.552547454834)" style="fill: rgb(244, 244, 244);"/><path d="M1304.148,575.906l-65.733-37.95c0.524,17.359-3.399,27.94-2.702,41.983c0.812,16.068,14.229,25.847,35.676,40.711&#10;&#9;&#9;c11.354,7.864,5.65,28.552-8.886,35.245c-14.112,6.473-3.757,14.231,6.692,18.828c0,0,0.125,15.328-9.848,20.292&#10;&#9;&#9;c0,0,9.995,8.442,6.659,18.19c-3.346,9.746-9.331,4.929-10.095,15.188c-0.77,10.261,12.946,17.688-2.013,36.513&#10;&#9;&#9;c-6.284,7.903-28.053,2.882-51.312-2.064c-25.713-5.457-51.231-8.773-63.702,1.422c-14.94,12.212-36.51,63.073-0.432,83.907&#10;&#9;&#9;l6.377,3.682c13.842,7.993,36.495,7.993,50.339,0l108.979-62.921c13.843-7.993,25.168-27.607,25.168-43.593v-125.84&#10;&#9;&#9;C1329.316,603.516,1317.991,583.899,1304.148,575.906z" transform="matrix(1.094211459159851, 0, 0, 1.094211459159851, -877.2068176269531, -481.552547454834)" style="fill: rgb(244, 244, 244);"/>
<path d="M 28.420000076293945 -0.25 L 36.630001068115234 -0.25 L 36.630001068115234 0.5900001525878906 L 33.060001373291016 2.0699996948242188 L 33.060001373291016 27.68000030517578 L 36.83000183105469 29.15999984741211 L 36.83000183105469 30 L 26.540000915527344 30 L 26.540000915527344 29.15999984741211 L 29.81999969482422 27.68000030517578 L 29.81999969482422 4.159999847412109 L 29.56999969482422 4.159999847412109 L 19.90999984741211 30 L 17.84000015258789 30 L 8.609999656677246 4.079999923706055 L 8.40999984741211 4.079999923706055 L 8.40999984741211 27.479999542236328 L 11.75 29.15999984741211 L 11.75 30 L 2.0899999141693115 30 L 2.0899999141693115 29.15999984741211 L 5.659999847412109 27.479999542236328 L 5.659999847412109 2.0699996948242188 L 1.8899999856948853 0.5900001525878906 L 1.8899999856948853 -0.25 L 11.670000076293945 -0.25 L 11.75 1.7000007629394531 L 19.280000686645508 23.540000915527344 L 19.440000534057617 23.540000915527344 L 28.420000076293945 -0.25 ZM 54.95355987548828 30.84000015258789 C 52.313560485839844 30.84000015258789 49.960227966308594 30.200000762939453 47.89356231689453 28.920000076293945 C 45.820228576660156 27.64666748046875 44.19022750854492 25.799999237060547 43.003562927246094 23.380001068115234 C 41.81022644042969 20.959999084472656 41.21356201171875 18.156665802001953 41.21356201171875 14.970000267028809 C 41.21356201171875 12.59000015258789 41.58689498901367 10.383333206176758 42.333560943603516 8.350000381469727 C 43.08022689819336 6.323333740234375 44.10022735595703 4.620000839233398 45.39356231689453 3.239999771118164 C 46.68022918701172 1.8600006103515625 48.19356155395508 0.7800006866455078 49.933563232421875 0 C 51.666893005371094 -0.7800006866455078 53.52022933959961 -1.1700000762939453 55.493560791015625 -1.1700000762939453 C 57.446895599365234 -1.1700000762939453 59.260231018066406 -0.7833328247070312 60.933563232421875 -0.010000228881835938 C 62.606895446777344 0.7633342742919922 64.04689025878906 1.8400001525878906 65.2535629272461 3.219999313354492 C 66.45355987548828 4.600000381469727 67.39689636230469 6.296667098999023 68.08355712890625 8.309999465942383 C 68.76356506347656 10.329999923706055 69.10356140136719 12.536666870117188 69.10356140136719 14.930000305175781 C 69.10356140136719 17.310001373291016 68.73356628417969 19.503334045410156 67.99356079101562 21.510000228881836 C 67.24689483642578 23.516666412353516 66.23689270019531 25.196666717529297 64.96356201171875 26.549999237060547 C 63.69022750854492 27.90333366394043 62.19022750854492 28.956666946411133 60.46356201171875 29.709999084472656 C 58.730228424072266 30.463333129882812 56.89356231689453 30.84000015258789 54.95355987548828 30.84000015258789 M 55.20355987548828 1.1499996185302734 C 53.29022979736328 1.1499996185302734 51.60356140136719 1.739999771118164 50.14356231689453 2.9200000762939453 C 48.69022750854492 4.100000381469727 47.57356262207031 5.733333587646484 46.79356384277344 7.819999694824219 C 46.0135612487793 9.906665802001953 45.62356185913086 12.290000915527344 45.62356185913086 14.970000267028809 C 45.62356185913086 19.043333053588867 46.50022888183594 22.33333396911621 48.253562927246094 24.84000015258789 C 50.00022888183594 27.35333251953125 52.31689453125 28.610000610351562 55.20355987548828 28.610000610351562 C 58.04356384277344 28.610000610351562 60.33689498901367 27.343334197998047 62.083560943603516 24.809999465942383 C 63.82356262207031 22.28333282470703 64.69355773925781 18.989999771118164 64.69355773925781 14.930000305175781 C 64.69355773925781 10.856666564941406 63.820228576660156 7.540000915527344 62.07356262207031 4.979999542236328 C 60.320228576660156 2.426666259765625 58.03022766113281 1.1499996185302734 55.20355987548828 1.1499996185302734 ZM 73.92768096923828 -0.25 L 86.63768005371094 -0.25 C 88.78434753417969 -0.25 90.7476806640625 0.07666587829589844 92.52767944335938 0.7299995422363281 C 94.30101013183594 1.3766670227050781 95.84101867675781 2.323333740234375 97.1476821899414 3.5699996948242188 C 98.454345703125 4.809999465942383 99.47434997558594 6.39666748046875 100.20767974853516 8.329999923706055 C 100.9410171508789 10.270000457763672 101.30767822265625 12.469999313354492 101.30767822265625 14.930000305175781 C 101.30767822265625 17.883333206176758 100.6843490600586 20.503334045410156 99.43768310546875 22.790000915527344 C 98.1910171508789 25.08333396911621 96.454345703125 26.856666564941406 94.2276840209961 28.110000610351562 C 92.00101470947266 29.3700008392334 89.45767974853516 30 86.5976791381836 30 L 73.92768096923828 30 L 73.92768096923828 29.15999984741211 L 77.69767761230469 27.68000030517578 L 77.69767761230469 2.0699996948242188 L 73.92768096923828 0.5900001525878906 L 73.92768096923828 -0.25 M 86.35768127441406 1.9500007629394531 L 81.69767761230469 1.9500007629394531 L 81.69767761230469 27.829999923706055 L 86.4776840209961 27.829999923706055 C 87.85768127441406 27.829999923706055 89.17434692382812 27.56333351135254 90.42768096923828 27.030000686645508 C 91.67434692382812 26.496665954589844 92.78768157958984 25.72333335876465 93.76768493652344 24.709999084472656 C 94.7476806640625 23.696666717529297 95.52767944335938 22.383333206176758 96.10768127441406 20.770000457763672 C 96.68768310546875 19.156665802001953 96.9776840209961 17.34666633605957 96.9776840209961 15.34000015258789 C 96.9776840209961 11.033332824707031 96.05435180664062 7.723333358764648 94.20767974853516 5.409999847412109 C 92.36101531982422 3.10333251953125 89.74434661865234 1.9500007629394531 86.35768127441406 1.9500007629394531 ZM 119.63411712646484 30.84000015258789 C 116.9941177368164 30.84000015258789 114.64077758789062 30.200000762939453 112.57411193847656 28.920000076293945 C 110.50077819824219 27.64666748046875 108.87078094482422 25.799999237060547 107.68411254882812 23.380001068115234 C 106.49078369140625 20.959999084472656 105.89411163330078 18.156665802001953 105.89411163330078 14.970000267028809 C 105.89411163330078 12.59000015258789 106.26744842529297 10.383333206176758 107.01411437988281 8.350000381469727 C 107.76078033447266 6.323333740234375 108.7807846069336 4.620000839233398 110.07411193847656 3.239999771118164 C 111.36077880859375 1.8600006103515625 112.87411499023438 0.7800006866455078 114.6141128540039 0 C 116.34745025634766 -0.7800006866455078 118.2007827758789 -1.1700000762939453 120.17411804199219 -1.1700000762939453 C 122.12744903564453 -1.1700000762939453 123.94078063964844 -0.7833328247070312 125.6141128540039 -0.010000228881835938 C 127.28744506835938 0.7633342742919922 128.72744750976562 1.8400001525878906 129.93411254882812 3.219999313354492 C 131.1341094970703 4.600000381469727 132.07745361328125 6.296667098999023 132.7641143798828 8.309999465942383 C 133.44412231445312 10.329999923706055 133.78411865234375 12.536666870117188 133.78411865234375 14.930000305175781 C 133.78411865234375 17.310001373291016 133.41412353515625 19.503334045410156 132.6741180419922 21.510000228881836 C 131.9274444580078 23.516666412353516 130.91744995117188 25.196666717529297 129.6441192626953 26.549999237060547 C 128.37078857421875 27.90333366394043 126.87078094482422 28.956666946411133 125.14411926269531 29.709999084472656 C 123.41078186035156 30.463333129882812 121.57411193847656 30.84000015258789 119.63411712646484 30.84000015258789 M 119.88411712646484 1.1499996185302734 C 117.97077941894531 1.1499996185302734 116.28411865234375 1.739999771118164 114.82411193847656 2.9200000762939453 C 113.37078094482422 4.100000381469727 112.25411224365234 5.733333587646484 111.47411346435547 7.819999694824219 C 110.6941146850586 9.906665802001953 110.30411529541016 12.290000915527344 110.30411529541016 14.970000267028809 C 110.30411529541016 19.043333053588867 111.18077850341797 22.33333396911621 112.93411254882812 24.84000015258789 C 114.68077850341797 27.35333251953125 116.99745178222656 28.610000610351562 119.88411712646484 28.610000610351562 C 122.72411346435547 28.610000610351562 125.01744842529297 27.343334197998047 126.76411437988281 24.809999465942383 C 128.50411987304688 22.28333282470703 129.37411499023438 18.989999771118164 129.37411499023438 14.930000305175781 C 129.37411499023438 10.856666564941406 128.5007781982422 7.540000915527344 126.75411224365234 4.979999542236328 C 125.00077819824219 2.426666259765625 122.71078491210938 1.1499996185302734 119.88411712646484 1.1499996185302734 ZM 162.0282440185547 29.239999771118164 C 159.63490295410156 30.086666107177734 157.188232421875 30.510000228881836 154.688232421875 30.510000228881836 C 152.9882354736328 30.510000228881836 151.37156677246094 30.323333740234375 149.83824157714844 29.950000762939453 C 148.29823303222656 29.56999969482422 146.8549041748047 28.969999313354492 145.50823974609375 28.149999618530273 C 144.1615753173828 27.329999923706055 142.9915771484375 26.33333396911621 141.9982452392578 25.15999984741211 C 141.00489807128906 23.98666763305664 140.2248992919922 22.546667098999023 139.65823364257812 20.84000015258789 C 139.09156799316406 19.139999389648438 138.80824279785156 17.26333236694336 138.80824279785156 15.210000038146973 C 138.80824279785156 12.643333435058594 139.2248992919922 10.323333740234375 140.05824279785156 8.25 C 140.89157104492188 6.176666259765625 142.0315704345703 4.483333587646484 143.47824096679688 3.1700000762939453 C 144.91824340820312 1.8500003814697266 146.59490966796875 0.8400001525878906 148.50823974609375 0.1399993896484375 C 150.42156982421875 -0.5599994659423828 152.4815673828125 -0.9099998474121094 154.688232421875 -0.9099998474121094 C 157.00823974609375 -0.9099998474121094 159.35824584960938 -0.5333328247070312 161.7382354736328 0.2199993133544922 L 161.6982421875 8.040000915527344 L 160.85824584960938 8.040000915527344 L 158.28823852539062 2.190000534057617 C 157.14157104492188 1.6833324432373047 155.63157653808594 1.4300003051757812 153.75823974609375 1.4300003051757812 C 152.66490173339844 1.4300003051757812 151.63490295410156 1.573333740234375 150.66824340820312 1.8600006103515625 C 149.6949005126953 2.14666748046875 148.76156616210938 2.626667022705078 147.8682403564453 3.299999237060547 C 146.96823120117188 3.9666671752929688 146.1949005126953 4.809999465942383 145.54823303222656 5.829999923706055 C 144.9015655517578 6.850000381469727 144.38490295410156 8.139999389648438 143.9982452392578 9.700000762939453 C 143.6182403564453 11.260000228881836 143.42823791503906 13.016666412353516 143.42823791503906 14.970000267028809 C 143.42823791503906 17.043333053588867 143.7315673828125 18.933334350585938 144.33824157714844 20.639999389648438 C 144.9449005126953 22.34000015258789 145.77490234375 23.739999771118164 146.82823181152344 24.84000015258789 C 147.88157653808594 25.940000534057617 149.10157775878906 26.790000915527344 150.4882354736328 27.389999389648438 C 151.87490844726562 27.983333587646484 153.3549041748047 28.280000686645508 154.92823791503906 28.280000686645508 C 156.32156372070312 28.280000686645508 157.64157104492188 28.079999923706055 158.88824462890625 27.68000030517578 L 161.1482391357422 20.939998626708984 L 161.9882354736328 20.939998626708984 L 162.0282440185547 29.239999771118164 ZM 180.17477416992188 30.84000015258789 C 177.53477478027344 30.84000015258789 175.1814422607422 30.200000762939453 173.11477661132812 28.920000076293945 C 171.04144287109375 27.64666748046875 169.4114532470703 25.799999237060547 168.2247772216797 23.380001068115234 C 167.0314483642578 20.959999084472656 166.43478393554688 18.156665802001953 166.43478393554688 14.970000267028809 C 166.43478393554688 12.59000015258789 166.80810546875 10.383333206176758 167.55477905273438 8.350000381469727 C 168.30145263671875 6.323333740234375 169.32144165039062 4.620000839233398 170.61477661132812 3.239999771118164 C 171.9014434814453 1.8600006103515625 173.41477966308594 0.7800006866455078 175.15478515625 0 C 176.8881072998047 -0.7800006866455078 178.74143981933594 -1.1700000762939453 180.71478271484375 -1.1700000762939453 C 182.66812133789062 -1.1700000762939453 184.4814453125 -0.7833328247070312 186.15478515625 -0.010000228881835938 C 187.82810974121094 0.7633342742919922 189.2681121826172 1.8400001525878906 190.4747772216797 3.219999313354492 C 191.67477416992188 4.600000381469727 192.6181182861328 6.296667098999023 193.30477905273438 8.309999465942383 C 193.98477172851562 10.329999923706055 194.3247833251953 12.536666870117188 194.3247833251953 14.930000305175781 C 194.3247833251953 17.310001373291016 193.95477294921875 19.503334045410156 193.21478271484375 21.510000228881836 C 192.46810913085938 23.516666412353516 191.45811462402344 25.196666717529297 190.18478393554688 26.549999237060547 C 188.91143798828125 27.90333366394043 187.41143798828125 28.956666946411133 185.68478393554688 29.709999084472656 C 183.95144653320312 30.463333129882812 182.11477661132812 30.84000015258789 180.17477416992188 30.84000015258789 M 180.42477416992188 1.1499996185302734 C 178.51144409179688 1.1499996185302734 176.8247833251953 1.739999771118164 175.36477661132812 2.9200000762939453 C 173.9114532470703 4.100000381469727 172.79478454589844 5.733333587646484 172.01478576660156 7.819999694824219 C 171.2347869873047 9.906665802001953 170.8447723388672 12.290000915527344 170.8447723388672 14.970000267028809 C 170.8447723388672 19.043333053588867 171.72145080566406 22.33333396911621 173.4747772216797 24.84000015258789 C 175.22145080566406 27.35333251953125 177.53811645507812 28.610000610351562 180.42477416992188 28.610000610351562 C 183.26478576660156 28.610000610351562 185.55810546875 27.343334197998047 187.30477905273438 24.809999465942383 C 189.04478454589844 22.28333282470703 189.91477966308594 18.989999771118164 189.91477966308594 14.930000305175781 C 189.91477966308594 10.856666564941406 189.04144287109375 7.540000915527344 187.29478454589844 4.979999542236328 C 185.54144287109375 2.426666259765625 183.25144958496094 1.1499996185302734 180.42477416992188 1.1499996185302734 ZM 206.68890380859375 17.700000762939453 L 206.68890380859375 27.68000030517578 L 211.3289031982422 29.15999984741211 L 211.3289031982422 30 L 199.14891052246094 30 L 199.14891052246094 29.15999984741211 L 202.9188995361328 27.68000030517578 L 202.9188995361328 2.0699996948242188 L 199.14891052246094 0.5900001525878906 L 199.14891052246094 -0.25 L 210.21890258789062 -0.25 C 211.9989013671875 -0.25 213.5789031982422 -0.04666709899902344 214.9589080810547 0.3600006103515625 C 216.33889770507812 0.7600002288818359 217.5055694580078 1.3299999237060547 218.4589080810547 2.0699996948242188 C 219.4055633544922 2.809999465942383 220.1255645751953 3.6933326721191406 220.618896484375 4.719999313354492 C 221.11224365234375 5.753334045410156 221.35890197753906 6.899999618530273 221.35890197753906 8.15999984741211 C 221.35890197753906 9.459999084472656 221.13223266601562 10.696666717529297 220.6789093017578 11.870000839233398 C 220.22557067871094 13.043333053588867 219.52223205566406 14.076666831970215 218.56890869140625 14.970000267028809 C 217.60890197753906 15.856666564941406 216.39224243164062 16.56333351135254 214.9188995361328 17.09000015258789 C 213.43890380859375 17.616666793823242 211.6688995361328 17.880001068115234 209.60890197753906 17.880001068115234 C 208.68890380859375 17.880001068115234 207.715576171875 17.81999969482422 206.68890380859375 17.700000762939453 M 210.81890869140625 1.8999996185302734 L 206.68890380859375 1.8999996185302734 L 206.68890380859375 15.5 C 207.2089080810547 15.566666603088379 207.70223999023438 15.616666793823242 208.1688995361328 15.649999618530273 C 208.6355743408203 15.6899995803833 209.0789031982422 15.710000038146973 209.4989013671875 15.710000038146973 C 211.03224182128906 15.710000038146973 212.29556274414062 15.516666412353516 213.28890991210938 15.130000114440918 C 214.27557373046875 14.75 215.06224060058594 14.229999542236328 215.64889526367188 13.569999694824219 C 216.22889709472656 12.916666030883789 216.63223266601562 12.15333366394043 216.85890197753906 11.280000686645508 C 217.0789031982422 10.399999618530273 217.18890380859375 9.469999313354492 217.18890380859375 8.489999771118164 C 217.18890380859375 6.290000915527344 216.64224243164062 4.6399993896484375 215.5489044189453 3.5400009155273438 C 214.45556640625 2.446666717529297 212.87890625 1.8999996185302734 210.81890869140625 1.8999996185302734 Z" transform="matrix(3.00187611579895, 0, 0, 3.00187611579895, 56.3040771484375, 467.8049011230469)" style="fill: rgb(244, 244, 244); white-space: pre; color: rgb(1, 1, 1);"/></svg>